<svg width="32" height="32" viewBox="0 0 32 32" fill="none" xmlns="http://www.w3.org/2000/svg">
<path d="M8.00002 22.6665H24M22.6667 27.9999C23.0203 27.9999 23.3594 27.8594 23.6095 27.6093C23.8595 27.3593 24 27.0201 24 26.6665V19.5332C24 18.9239 24.4214 18.4079 24.9694 18.1452C26.104 17.6039 27.011 16.6793 27.5302 15.5344C28.0494 14.3895 28.1476 13.098 27.8072 11.8878C27.4669 10.6776 26.7101 9.62653 25.6703 8.92005C24.6304 8.21357 23.3745 7.89711 22.124 8.02652C21.609 6.82946 20.7545 5.80958 19.6661 5.09297C18.5777 4.37636 17.3032 3.99445 16 3.99445C14.6969 3.99445 13.4223 4.37636 12.3339 5.09297C11.2455 5.80958 10.391 6.82946 9.87602 8.02652C8.62613 7.89802 7.371 8.21493 6.33193 8.92137C5.29286 9.62782 4.53657 10.6784 4.1964 11.888C3.85623 13.0975 3.95403 14.3884 4.47256 15.5329C4.99108 16.6774 5.89704 17.602 7.03068 18.1439C7.57868 18.4079 8.00002 18.9239 8.00002 19.5319V26.6665C8.00002 27.0201 8.14049 27.3593 8.39054 27.6093C8.64059 27.8594 8.97973 27.9999 9.33335 27.9999H22.6667Z" stroke="#FFBA8C" stroke-width="2.66667" stroke-linecap="round" stroke-linejoin="round"/>
</svg>
