<svg width="32" height="32" viewBox="0 0 32 32" fill="none" xmlns="http://www.w3.org/2000/svg">
<path d="M8.00003 22.6666H24M22.6667 27.9999C23.0203 27.9999 23.3595 27.8594 23.6095 27.6094C23.8596 27.3593 24 27.0202 24 26.6666V19.5332C24 18.9239 24.4214 18.4079 24.9694 18.1453C26.104 17.604 27.011 16.6793 27.5302 15.5344C28.0494 14.3896 28.1476 13.098 27.8073 11.8879C27.467 10.6777 26.7101 9.62659 25.6703 8.92011C24.6304 8.21363 23.3745 7.89717 22.124 8.02658C21.6091 6.82953 20.7545 5.80964 19.6661 5.09303C18.5777 4.37642 17.3032 3.99451 16 3.99451C14.6969 3.99451 13.4223 4.37642 12.3339 5.09303C11.2455 5.80964 10.391 6.82953 9.87603 8.02658C8.62614 7.89808 7.37102 8.21499 6.33195 8.92143C5.29287 9.62788 4.53658 10.6785 4.19641 11.8881C3.85625 13.0976 3.95405 14.3884 4.47257 15.5329C4.9911 16.6774 5.89705 17.6021 7.0307 18.1439C7.5787 18.4079 8.00003 18.9239 8.00003 19.5319V26.6666C8.00003 27.0202 8.14051 27.3593 8.39056 27.6094C8.64061 27.8594 8.97974 27.9999 9.33337 27.9999H22.6667Z" stroke="#5B3256" stroke-width="2.66667" stroke-linecap="round" stroke-linejoin="round"/>
</svg>
