<svg width="49" height="48" viewBox="0 0 49 48" fill="none" xmlns="http://www.w3.org/2000/svg">
<path d="M14.5 41.9999H34.5M23.26 23.9999C22.0487 24.0112 20.878 23.5641 19.9826 22.7483C19.0871 21.9325 18.5333 20.8083 18.4321 19.6013C18.3308 18.3942 18.6897 17.1934 19.4368 16.2399C20.1838 15.2864 21.2638 14.6505 22.46 14.4599C22.2685 13.6124 22.3106 12.7288 22.5819 11.9033C22.8532 11.0778 23.3435 10.3414 24.0004 9.77276C24.6574 9.20407 25.4564 8.82438 26.3123 8.67418C27.1681 8.52399 28.0487 8.60893 28.86 8.91994C29.2153 8.36066 29.6825 7.881 30.2322 7.51114C30.7819 7.14128 31.4023 6.88923 32.0542 6.77087C32.7061 6.65251 33.3755 6.6704 34.0201 6.82341C34.6648 6.97642 35.2708 7.26124 35.8 7.65994C36.7231 6.93439 37.8802 6.57235 39.0522 6.64233C40.2243 6.71231 41.33 7.20944 42.1603 8.03968C42.9905 8.86992 43.4876 9.97567 43.5576 11.1477C43.6276 12.3198 43.2656 13.4768 42.54 14.3999C42.9916 14.9998 43.2962 15.6972 43.4292 16.4362C43.5623 17.1752 43.5202 17.935 43.3062 18.6548C43.0922 19.3745 42.7124 20.034 42.1972 20.5802C41.6821 21.1264 41.046 21.5442 40.34 21.7999C40.5225 22.5198 40.543 23.2712 40.4 23.9999M26.5 23.9999L34.5 15.9999M22.3 14.4999C21.203 13.3305 19.7791 12.5186 18.214 12.1702C16.6488 11.8218 15.015 11.9529 13.5255 12.5466C12.0359 13.1402 10.7598 14.1688 9.86339 15.4983C8.96698 16.8278 8.49187 18.3965 8.5 19.9999C8.5 21.4599 8.9 22.8199 9.58 23.9999M24.5 41.9999C29.2739 41.9999 33.8523 40.1035 37.2279 36.7279C40.6036 33.3522 42.5 28.7738 42.5 23.9999H6.5C6.5 28.7738 8.39642 33.3522 11.7721 36.7279C15.1477 40.1035 19.7261 41.9999 24.5 41.9999Z" stroke="#5B3256" stroke-width="4" stroke-linecap="round" stroke-linejoin="round"/>
</svg>
