<svg width="32" height="32" viewBox="0 0 32 32" fill="none" xmlns="http://www.w3.org/2000/svg">
<path d="M2.66666 28C2.66654 25.9471 3.25884 23.9378 4.37245 22.2132C5.48606 20.4886 7.07369 19.122 8.94479 18.2774C10.8159 17.4327 12.891 17.146 14.921 17.4516C16.951 17.7571 18.8498 18.642 20.3893 20M25.3333 21.3333V29.3333M29.3333 25.3333H21.3333M20 10.6667C20 14.3486 17.0152 17.3333 13.3333 17.3333C9.65142 17.3333 6.66666 14.3486 6.66666 10.6667C6.66666 6.98477 9.65142 4 13.3333 4C17.0152 4 20 6.98477 20 10.6667Z" stroke="#5B3256" stroke-width="2" stroke-linecap="round" stroke-linejoin="round"/>
</svg>
