<svg width="33" height="32" viewBox="0 0 33 32" fill="none" xmlns="http://www.w3.org/2000/svg">
<path d="M8.49999 22.6667H24.5M23.1667 28C23.5203 28 23.8594 27.8596 24.1095 27.6095C24.3595 27.3595 24.5 27.0203 24.5 26.6667V19.5334C24.5 18.924 24.9213 18.408 25.4693 18.1454C26.604 17.6041 27.5109 16.6794 28.0302 15.5346C28.5494 14.3897 28.6475 13.0982 28.3072 11.888C27.9669 10.6778 27.2101 9.62671 26.1702 8.92023C25.1304 8.21375 23.8744 7.89729 22.624 8.0267C22.109 6.82965 21.2545 5.80977 20.1661 5.09315C19.0777 4.37654 17.8031 3.99463 16.5 3.99463C15.1969 3.99463 13.9223 4.37654 12.8339 5.09315C11.7455 5.80977 10.891 6.82965 10.376 8.0267C9.1261 7.8982 7.87097 8.21511 6.8319 8.92155C5.79283 9.628 5.03654 10.6786 4.69637 11.8882C4.3562 13.0977 4.454 14.3885 4.97253 15.533C5.49105 16.6775 6.397 17.6022 7.53065 18.144C8.07865 18.408 8.49999 18.924 8.49999 19.532V26.6667C8.49999 27.0203 8.64046 27.3595 8.89051 27.6095C9.14056 27.8596 9.4797 28 9.83332 28H23.1667Z" stroke="#5B3256" stroke-width="2" stroke-linecap="round" stroke-linejoin="round"/>
</svg>
