<svg width="32" height="32" viewBox="0 0 32 32" fill="none" xmlns="http://www.w3.org/2000/svg">
<path d="M9.33333 28H22.6667M15.1733 16C14.3658 16.0075 13.5853 15.7095 12.9884 15.1656C12.3914 14.6217 12.0222 13.8723 11.9547 13.0675C11.8872 12.2628 12.1265 11.4623 12.6245 10.8266C13.1225 10.191 13.8425 9.76707 14.64 9.64C14.5123 9.07497 14.5404 8.48588 14.7213 7.93556C14.9021 7.38524 15.229 6.89434 15.667 6.51521C16.1049 6.13609 16.6376 5.88296 17.2082 5.78283C17.7787 5.6827 18.3658 5.73933 18.9067 5.94667C19.1435 5.57382 19.455 5.25404 19.8215 5.00747C20.188 4.76089 20.6015 4.59286 21.0361 4.51396C21.4707 4.43505 21.917 4.44698 22.3468 4.54899C22.7765 4.65099 23.1805 4.84087 23.5333 5.10667C24.1488 4.62297 24.9201 4.38161 25.7015 4.42826C26.4828 4.47491 27.22 4.80634 27.7735 5.35983C28.327 5.91332 28.6584 6.65049 28.7051 7.43185C28.7517 8.21322 28.5104 8.98458 28.0267 9.6C28.3277 9.99991 28.5308 10.4649 28.6195 10.9575C28.7082 11.4502 28.6801 11.9567 28.5375 12.4365C28.3948 12.9164 28.1416 13.356 27.7982 13.7202C27.4547 14.0843 27.0306 14.3629 26.56 14.5333C26.6817 15.0132 26.6953 15.5142 26.6 16M17.3333 16L22.6667 10.6667M14.5333 9.66667C13.802 8.88703 12.8527 8.34579 11.8093 8.1135C10.7659 7.88121 9.67666 7.96865 8.68364 8.36441C7.69063 8.76018 6.83987 9.44592 6.24226 10.3322C5.64465 11.2186 5.32792 12.2644 5.33333 13.3333C5.33333 14.3067 5.6 15.2133 6.05333 16M16 28C19.1826 28 22.2348 26.7357 24.4853 24.4853C26.7357 22.2348 28 19.1826 28 16H4C4 19.1826 5.26428 22.2348 7.51472 24.4853C9.76515 26.7357 12.8174 28 16 28Z" stroke="#5B3256" stroke-width="2" stroke-linecap="round" stroke-linejoin="round"/>
</svg>
