<svg width="32" height="32" viewBox="0 0 32 32" fill="none" xmlns="http://www.w3.org/2000/svg">
<path d="M2.66669 29.3333L16 16M21.3334 10.6667L19.7734 12.2267M21.3334 10.6667H24C25.4145 10.6667 26.7711 10.1048 27.7713 9.10457C28.7715 8.10438 29.3334 6.74782 29.3334 5.33333V2.66667H26.6667C25.2522 2.66667 23.8956 3.22857 22.8955 4.22877C21.8953 5.22896 21.3334 6.58551 21.3334 8V10.6667ZM8.70669 23.2933C9.57789 22.4187 10.067 21.2345 10.067 20C10.067 18.7655 9.57789 17.5813 8.70669 16.7067L6.66669 14.6667L4.62669 16.7067C3.75549 17.5813 3.26634 18.7655 3.26634 20C3.26634 21.2345 3.75549 22.4187 4.62669 23.2933L6.66669 25.3333M8.70669 23.2933L6.66669 25.3333M8.70669 23.2933C9.58132 22.4221 10.7655 21.933 12 21.933C13.2345 21.933 14.4187 22.4221 15.2934 23.2933L17.3334 25.3333L15.2934 27.3733C14.4187 28.2445 13.2345 28.7337 12 28.7337C10.7655 28.7337 9.58132 28.2445 8.70669 27.3733L6.66669 25.3333M10.6667 10.6667L9.96002 11.3733C9.08882 12.248 8.59967 13.4322 8.59967 14.6667C8.59967 15.9012 9.08882 17.0854 9.96002 17.96L12 20M12 20L14.04 17.96M12 20L14.04 22.04C14.9147 22.9112 16.0989 23.4004 17.3334 23.4004C18.5679 23.4004 19.7521 22.9112 20.6267 22.04L21.3334 21.3333M14.04 17.96C14.7734 17.2267 15.2134 16.2933 15.3467 15.3333M14.04 17.96C14.7518 17.2526 15.6731 16.7943 16.6667 16.6533M14.5467 7.01334C14.7467 6.66667 15 6.33333 15.2934 6.04L17.3334 4L19.3734 6.04C20.1748 6.84534 20.6549 7.9154 20.7236 9.04948C20.7924 10.1836 20.445 11.3038 19.7467 12.2M24.9867 17.4533C25.3334 17.2533 25.6667 17 25.96 16.7067L28 14.6667L25.96 12.6267C25.1547 11.8252 24.0846 11.3451 22.9505 11.2764C21.8165 11.2077 20.6963 11.555 19.8 12.2533M2.66669 2.66667L29.3334 29.3333" stroke="#5B3256" stroke-width="2" stroke-linecap="round" stroke-linejoin="round"/>
</svg>
